<?xml version="1.0" standalone="no"?><!DOCTYPE svg PUBLIC "-//W3C//DTD SVG 1.1//EN" "http://www.w3.org/Graphics/SVG/1.1/DTD/svg11.dtd"><svg t="1596079705480" class="icon" viewBox="0 0 1024 1024" version="1.1" xmlns="http://www.w3.org/2000/svg" p-id="1156" xmlns:xlink="http://www.w3.org/1999/xlink" width="200" height="200"><defs><style type="text/css"></style></defs><path d="M896 128c-35.36 0-64 28.64-64 64 0 15.488 5.728 29.504 14.88 40.576l-168.064 312.096C676.544 544.448 674.336 544 672 544c-14.432 0-27.616 4.96-38.336 13.024l-218.656-131.2C415.52 422.592 416 419.36 416 416c0-35.36-28.64-64-64-64s-64 28.64-64 64c0 15.488 5.728 29.504 14.88 40.576l-168.064 312.096C132.576 768.448 130.336 768 128 768c-35.36 0-64 28.64-64 64 0 35.36 28.64 64 64 64s64-28.64 64-64c0-15.488-5.728-29.504-14.88-40.576l168.064-312.096C347.456 479.552 349.664 480 352 480c14.432 0 27.616-4.96 38.336-13.024l218.656 131.2C608.48 601.408 608 604.64 608 608c0 35.36 28.64 64 64 64s64-28.64 64-64c0-15.488-5.728-29.504-14.88-40.576l168.064-312.096C891.424 255.552 893.664 256 896 256c35.36 0 64-28.64 64-64C960 156.64 931.36 128 896 128z" p-id="1157"></path></svg>